<?xml version="1.0" encoding="iso-8859-1"?>
<!-- Uploaded to: SVG Repo, www.svgrepo.com, Generator: SVG Repo Mixer Tools -->
<svg height="800px" width="800px" version="1.1" id="Layer_1" xmlns="http://www.w3.org/2000/svg" xmlns:xlink="http://www.w3.org/1999/xlink" 
	 viewBox="0 0 512 512" xml:space="preserve">
<path style="fill:#5B5751;" d="M314.339,396.595h-53.887l-44.522,57.702L260.452,512c24.722,0,48.621-3.513,71.235-10.055
	c9.234-2.671,18.253-5.851,27.026-9.502c10.614-4.418,20.871-9.523,30.708-15.271c-7.829-29.053-25.207-54.189-48.567-71.827
	C333.233,399.593,323.886,396.595,314.339,396.595z"/>
<path style="fill:#706B63;" d="M180.051,405.345c-23.359,17.638-40.738,42.773-48.567,71.827
	c9.836,5.748,20.093,10.853,30.707,15.271c8.773,3.652,17.791,6.831,27.026,9.502C211.831,508.487,235.73,512,260.452,512V396.595
	h-53.887C197.019,396.595,187.671,399.593,180.051,405.345z"/>
<path style="fill:#5B5751;" d="M162.191,492.443c8.773,3.652,17.791,6.831,27.026,9.502v-60.368
	C175.689,455.26,166.077,472.821,162.191,492.443z"/>
<g>
	<path style="opacity:0.6;fill:#47423F;enable-background:new    ;" d="M358.713,492.443c-8.773,3.652-17.791,6.831-27.026,9.502
		v-60.368C345.215,455.26,354.827,472.821,358.713,492.443z"/>
	<path style="opacity:0.6;fill:#47423F;enable-background:new    ;" d="M297.103,450.625l-36.651-36.651l-33.391,33.391l-3.26,3.26
		c-2.184,2.184-3.258,5.049-3.258,7.91c0,2.862,1.075,5.727,3.258,7.91l36.651,36.65l33.391-33.391l3.26-3.26
		c2.184-2.184,3.258-5.049,3.258-7.91S299.287,452.808,297.103,450.625z"/>
</g>
<path style="fill:#E7E4CD;" d="M215.93,399.367v26.961c0,11.9,14.387,17.859,22.801,9.444l5.742-5.742h15.979v-30.633
	L215.93,399.367z"/>
<path style="fill:#C1BDAB;" d="M260.452,399.398l-11.13,15.613l11.13,15.019h15.978l5.742,5.742
	c8.415,8.415,22.801,2.455,22.801-9.444v-26.9L260.452,399.398z"/>
<path style="fill:#D5D2BD;" d="M277.122,410.558h-33.338c-0.006,0.183-0.028,14.44-0.028,14.624c0,4.61,1.869,8.784,4.891,11.806
	c3.021,3.021,7.195,4.89,11.805,4.89c4.61,0,8.784-1.869,11.805-4.89c3.022-3.022,4.891-7.196,4.891-11.806
	C277.148,425.008,277.127,410.732,277.122,410.558z"/>
<path style="fill:#E1B872;" d="M432.974,205.913c-8.164,0-15.865,1.966-22.676,5.432C391.67,140.876,331.637,77.913,260.452,77.913
	c-71.184,0-131.217,62.96-149.846,133.428l4.115,126.138c4.173,17.01,9.671,31.44,16.562,38.105
	c25.382,24.551,85.945,36.242,129.44,36.242s103.515-11.69,128.897-36.242c11.451-11.076,19.063-43.583,23.122-73.766
	c6.189,2.737,13.029,4.269,20.231,4.269c27.662,0,50.087-22.424,50.087-50.087S460.636,205.913,432.974,205.913z"/>
<path style="fill:#ECCE93;" d="M114.721,337.479c29.805,16.378,76.934,24.26,112.611,24.26c43.496,0,103.515-11.69,128.897-36.242
	c6.89-6.664,12.389-21.088,16.562-38.095c2.148-8.756-6.134-16.518-14.684-13.654c-14.33,4.799-29.365,7.294-44.663,7.294h-2.905
	c-50.854,0-96.496-25.887-123.113-66.163c-3.928-5.944-12.888-5.296-15.816,1.199c-1.769,3.92-3.278,7.964-4.508,12.102
	c-0.04,0.134-0.08,0.266-0.121,0.398c-5.01,16.124-27.016,18.087-35.158,3.296c-4.841-8.795-12.251-15.971-21.216-20.533
	c0,0.001,0,0.002-0.001,0.003c-1.496-0.761-3.042-1.436-4.619-2.048c-0.253-0.098-0.5-0.205-0.755-0.298
	c-0.59-0.218-1.191-0.411-1.792-0.608c-0.405-0.132-0.809-0.267-1.22-0.39c-0.547-0.164-1.1-0.311-1.655-0.455
	c-0.489-0.127-0.978-0.249-1.471-0.362c-0.512-0.117-1.027-0.227-1.546-0.328c-0.567-0.11-1.138-0.207-1.711-0.298
	c-0.47-0.075-0.938-0.151-1.411-0.213c-0.679-0.088-1.366-0.154-2.054-0.214c-0.386-0.035-0.769-0.079-1.156-0.105
	c-1.086-0.07-2.18-0.113-3.286-0.113c-28.266,0-51.064,23.415-50.055,51.907c0.904,25.51,21.281,46.515,46.755,48.16
	c8.412,0.543,16.404-1.01,23.531-4.162C109.778,313.838,111.96,326.222,114.721,337.479z"/>
<circle style="fill:#E1B872;" cx="87.93" cy="256" r="16.696"/>
<circle style="fill:#D5A150;" cx="432.974" cy="256" r="16.696"/>
<g>
	<path style="fill:#47423F;" d="M332.8,239.304h-33.391c-4.61,0-8.348,3.738-8.348,8.348s3.738,8.348,8.348,8.348
		c0,9.22,7.475,16.696,16.696,16.696S332.8,265.22,332.8,256c4.61,0,8.348-3.738,8.348-8.348S337.41,239.304,332.8,239.304z"/>
	<path style="fill:#47423F;" d="M221.496,239.304h-33.391c-4.61,0-8.348,3.738-8.348,8.348s3.738,8.348,8.348,8.348
		c0,9.22,7.475,16.696,16.696,16.696c9.22,0,16.696-7.475,16.696-16.696c4.61,0,8.348-3.738,8.348-8.348
		S226.106,239.304,221.496,239.304z"/>
	<path style="fill:#47423F;" d="M272.696,297.739h-24.487c-4.61,0-8.348-3.738-8.348-8.348s3.738-8.348,8.348-8.348h24.487
		c4.61,0,8.348,3.738,8.348,8.348S277.306,297.739,272.696,297.739z"/>
</g>
<g>
	<path style="fill:#625143;" d="M189.326,216.732c-3.519,0-6.792-2.243-7.937-5.771c-1.425-4.384,0.975-9.094,5.359-10.518
		c11.825-3.842,24.311-3.842,36.108-0.001c4.384,1.427,6.781,6.138,5.354,10.522c-1.427,4.384-6.135,6.783-10.522,5.354
		c-8.42-2.74-17.335-2.739-25.781,0.004C191.049,216.599,190.181,216.732,189.326,216.732z"/>
	<path style="fill:#625143;" d="M260.452,77.913c-71.185,0-131.218,62.963-149.846,133.432c6.245,3.178,11.734,7.627,16.128,13.004
		c1.79,2.19,4.472,3.455,7.302,3.455l0,0c4.185,0,7.868-2.75,9.061-6.762c7.945-26.712,24.752-49.607,47.024-65.264
		C200.569,212.791,250.506,256,310.539,256h2.905c31.754,0,61.727-13.264,84.305-35.593c3.672-3.631,7.901-6.698,12.548-9.064
		C391.67,140.876,331.637,77.913,260.452,77.913z"/>
</g>
<path style="fill:#47423F;" d="M405.702,201.807V33.391C405.702,14.949,390.753,0,372.311,0H171.963
	c-18.442,0-33.391,14.949-33.391,33.391v113.956C202.17,183.888,275.89,204.8,354.502,204.8
	C371.825,204.8,388.91,203.782,405.702,201.807z"/>
<path style="fill:#5B5751;" d="M138.572,33.391v113.967c47.722,27.42,101.142,46.038,158.052,53.625V33.391
	C296.624,14.949,281.674,0,263.232,0h-91.27C153.522,0,138.572,14.949,138.572,33.391z"/>
<path style="opacity:0.1;fill:#FEFBE1;enable-background:new    ;" d="M218.711,120.5V33.391C218.711,14.949,233.66,0,252.102,0
	h-46.748c-18.442,0-33.391,14.949-33.391,33.391v63.88v67.373c15.131,7.024,30.732,13.207,46.748,18.479V120.5z"/>
<g>
	<path style="fill:#47423F;" d="M354.502,213.148c-94.586,0-184.813-29.427-260.929-85.099c-3.721-2.721-4.531-7.945-1.81-11.666
		c2.723-3.722,7.946-4.531,11.666-1.81c73.235,53.565,160.053,81.879,251.071,81.879c33.174,0,66.232-3.836,98.255-11.401
		c4.489-1.056,8.983,1.719,10.043,6.205c1.06,4.487-1.719,8.983-6.205,10.043C423.317,209.162,388.967,213.148,354.502,213.148z"/>
	<path style="fill:#47423F;" d="M160.428,494.379L65.977,362.139l-25.907-17.095l7.771,30.048l94.453,132.242
		c3.577,5.008,10.536,6.167,15.544,2.591l0,0C162.845,506.346,164.005,499.387,160.428,494.379z"/>
</g>
<g>
	<path style="fill:#D5D2BD;" d="M49.15,338.58c-3.577-5.008-10.536-6.167-15.544-2.591l0,0c-5.008,3.577-6.167,10.536-2.59,15.545
		l16.825,23.556l18.135-12.952L49.15,338.58z"/>
	<path style="fill:#D5D2BD;" d="M125.227,444.948l-4.545,21.971l16.761-4.867c4.272,5.98,12.891,6.694,18.089,1.497l0,0
		c4.112-4.112,4.648-10.592,1.268-15.323l-12.217-17.104c-4.272-5.98-12.891-6.694-18.089-1.497l0,0
		C122.385,433.735,121.848,440.216,125.227,444.948z"/>
</g>
<path style="fill:#E7E4CD;" d="M137.727,497.097L137.727,497.097c-9.413,9.413-24.674,9.413-34.087,0l-6.568-6.568
	c-13.04-13.04-13.04-34.183,0-47.222l0,0c8.24-8.24,21.907-7.109,28.68,2.374l14.545,20.363
	C147.145,475.632,146.058,488.766,137.727,497.097z"/>
</svg>