<?xml version="1.0" encoding="iso-8859-1"?>
<!-- Uploaded to: SVG Repo, www.svgrepo.com, Generator: SVG Repo Mixer Tools -->
<svg height="800px" width="800px" version="1.1" id="Layer_1" xmlns="http://www.w3.org/2000/svg" xmlns:xlink="http://www.w3.org/1999/xlink" 
	 viewBox="0 0 512 512" xml:space="preserve">
<path style="fill:#AEB2D3;" d="M253.811,429.351l-90.465,0.267l-0.402-0.267c-11.257,16.817-17.99,36.907-18.42,58.531
	c10.574,5.012,21.557,9.295,32.874,12.813c3.2,0.994,6.427,1.926,9.681,2.794c0.427,0.114,0.856,0.225,1.283,0.337
	c20.892,5.46,42.831,8.317,65.451,8.167l32.821-82.641h-32.823V429.351z"/>
<path style="fill:#797DAF;" d="M281.596,450.522c-3.642-0.033-7.165,0.443-10.504,1.36c-11.447,3.142-23.468,3.234-34.962,0.267
	c-3.353-0.865-6.882-1.288-10.523-1.2c-20.713,0.499-37.504,18.64-37.346,39.358l0.002,0.306l0.101,13.212
	c20.971,5.481,42.995,8.34,65.706,8.167c22.711-0.173,44.688-3.368,65.573-9.168l-0.101-13.212l-0.002-0.307
	C319.38,468.587,302.314,450.704,281.596,450.522z"/>
<path style="fill:#656890;" d="M336.534,418.422c-5.785-6.661-12.359-12.615-19.579-17.715
	c-18.046-12.75-40.109-20.173-63.89-19.991c-23.781,0.182-45.728,7.94-63.577,20.964c-7.141,5.211-13.624,11.264-19.306,18.012
	c-2.59,3.076-4.996,6.309-7.239,9.66l0.402,0.267c2.164,1.552,4.356,3.049,6.571,4.496c3.26,2.13,6.575,4.14,9.938,6.026
	c2.774,1.557,5.578,3.036,8.416,4.417c5.715,2.78,11.5,5.176,17.341,7.212c13.284,4.629,26.859,7.328,40.588,8.055
	c2.533,0.135,5.07,0.21,7.611,0.21c0.001,0,0.002,0,0.003,0v51.958c0.085,0,0.17,0.001,0.255,0
	c22.711-0.173,44.688-3.367,65.573-9.168c0.427-0.118,0.853-0.235,1.278-0.357c3.239-0.918,6.453-1.898,9.637-2.942
	c5.546-1.817,10.996-3.84,16.364-6.023c3.277-1.331,6.53-2.709,9.736-4.175c2.208-1.01,4.401-2.045,6.575-3.116
	C362.32,460.292,352.404,436.696,336.534,418.422z"/>
<path style="fill:#959BC9;" d="M170.184,419.691c-15.589,18.514-25.144,42.259-25.66,68.191
	c10.574,5.012,21.557,9.295,32.874,12.813c3.2,0.994,6.427,1.926,9.681,2.794c0.427,0.114,0.856,0.225,1.283,0.337l-0.142-18.683
	C188.038,461.254,181.483,438.904,170.184,419.691z"/>
<path style="fill:#535572;" d="M336.534,418.422c-2.994,5.273-5.628,10.776-7.879,16.47c-6.026,15.236-9.288,31.859-9.156,49.249
	l0.142,18.683c0.427-0.118,0.853-0.235,1.278-0.357c3.239-0.918,6.453-1.899,9.637-2.942c5.546-1.817,10.996-3.84,16.364-6.023
	c3.277-1.331,6.53-2.709,9.736-4.175c2.208-1.01,4.401-2.045,6.575-3.116C362.32,460.292,352.404,436.696,336.534,418.422z"/>
<g>
	<circle style="opacity:0.3;fill:#D9B43A;enable-background:new    ;" cx="188.171" cy="427.761" r="16.41"/>
	<path style="opacity:0.3;fill:#D9B43A;enable-background:new    ;" d="M171.761,460.581c0-9.063-7.347-16.41-16.41-16.41
		c-0.249,0-0.493,0.026-0.74,0.037c-4.293,9.258-7.329,19.209-8.888,29.642c2.707,1.967,6.026,3.141,9.627,3.141
		C164.413,476.991,171.761,469.644,171.761,460.581z"/>
	<circle style="opacity:0.3;fill:#D9B43A;enable-background:new    ;" cx="253.812" cy="427.761" r="16.41"/>
	<circle style="opacity:0.3;fill:#D9B43A;enable-background:new    ;" cx="253.812" cy="493.402" r="16.41"/>
	<circle style="opacity:0.3;fill:#D9B43A;enable-background:new    ;" cx="220.991" cy="460.581" r="16.41"/>
	<circle style="opacity:0.3;fill:#D9B43A;enable-background:new    ;" cx="319.453" cy="427.761" r="16.41"/>
	<circle style="opacity:0.3;fill:#D9B43A;enable-background:new    ;" cx="286.632" cy="460.581" r="16.41"/>
	<path style="opacity:0.3;fill:#D9B43A;enable-background:new    ;" d="M352.273,444.171c-9.063,0-16.41,7.347-16.41,16.41
		s7.347,16.41,16.41,16.41c3.672,0,7.049-1.22,9.783-3.257c-1.561-10.393-4.575-20.302-8.841-29.515
		C352.902,444.201,352.592,444.171,352.273,444.171z"/>
	<path style="opacity:0.3;fill:#D9B43A;enable-background:new    ;" d="M204.581,493.402c0-9.063-7.347-16.41-16.41-16.41
		s-16.41,7.347-16.41,16.41c0,2.053,0.384,4.015,1.075,5.825c1.515,0.502,3.035,0.993,4.562,1.468
		c3.2,0.994,6.427,1.926,9.681,2.794c0.427,0.114,0.856,0.225,1.283,0.337c3.314,0.866,6.658,1.66,10.023,2.393
		C202.157,503.215,204.581,498.597,204.581,493.402z"/>
	<path style="opacity:0.3;fill:#D9B43A;enable-background:new    ;" d="M319.453,476.991c-9.063,0-16.41,7.347-16.41,16.41
		c0,4.867,2.127,9.229,5.495,12.23c3.733-0.856,7.436-1.789,11.103-2.807c0.427-0.118,0.853-0.235,1.278-0.357
		c3.239-0.918,6.453-1.898,9.637-2.942c1.56-0.511,3.111-1.043,4.656-1.585c0.418-1.442,0.651-2.963,0.651-4.539
		C335.863,484.339,328.516,476.991,319.453,476.991z"/>
</g>
<circle style="fill:#BD7155;" cx="91.897" cy="76.581" r="76.581"/>
<path style="opacity:0.5;fill:#CE9276;enable-background:new    ;" d="M76.696,1.514C46.597,7.576,22.892,31.282,16.83,61.38
	c5.411,21.314,24.72,37.082,47.717,37.082c27.19,0,49.231-22.041,49.231-49.231C113.778,26.235,98.01,6.924,76.696,1.514z"/>
<circle style="fill:#BD7155;" cx="420.102" cy="76.581" r="76.581"/>
<path style="opacity:0.5;fill:#CE9276;enable-background:new    ;" d="M404.901,1.514c-30.099,6.062-53.804,29.768-59.866,59.866
	c5.411,21.314,24.72,37.082,47.717,37.082c27.19,0,49.231-22.041,49.231-49.231C441.983,26.235,426.215,6.924,404.901,1.514z"/>
<path style="fill:#D5D2BD;" d="M423.383,211.145c-8.026,0-15.595,1.933-22.291,5.34c-16.36-61.881-65.207-117.866-125.331-129.096
	l-76.723,335.034c17.009,8.274,35.47,12.996,54.772,12.996c69.968,0,128.975-61.886,147.284-131.151
	c6.693,3.406,14.263,5.339,22.288,5.339c27.19,0,49.231-22.041,49.231-49.231C472.614,233.186,450.572,211.145,423.383,211.145z"/>
<path style="fill:#E7E4CD;" d="M275.762,87.389c-7.17-1.339-14.497-2.056-21.951-2.056c-69.968,0-128.975,61.886-147.284,131.151
	c-6.693-3.406-14.263-5.339-22.288-5.339c-27.19,0-49.231,22.041-49.231,49.231s22.041,49.231,49.231,49.231
	c8.03,0,15.603-1.934,22.299-5.344c13.259,50.155,47.85,96.44,92.501,118.16c7.17,1.339,14.497,2.056,21.951,2.056
	c84.589,0,153.162-90.453,153.162-175.043C374.153,184.148,333.297,115.378,275.762,87.389z"/>
<circle style="fill:#ADA999;" cx="423.385" cy="260.376" r="16.41"/>
<circle style="fill:#C1BDAB;" cx="84.238" cy="260.376" r="16.41"/>
<g>
	<path style="fill:#DFB296;" d="M175.045,290.462h-10.94c-4.533,0-8.205-3.674-8.205-8.205c0-4.531,3.673-8.205,8.205-8.205h10.94
		c4.533,0,8.205,3.674,8.205,8.205C183.25,286.788,179.576,290.462,175.045,290.462z"/>
	<path style="fill:#DFB296;" d="M343.523,290.462h-10.94c-4.533,0-8.205-3.674-8.205-8.205c0-4.531,3.673-8.205,8.205-8.205h10.94
		c4.533,0,8.205,3.674,8.205,8.205C351.729,286.788,348.055,290.462,343.523,290.462z"/>
</g>
<g>
	<circle style="fill:#474641;" cx="199.111" cy="260.376" r="16.41"/>
	<circle style="fill:#474641;" cx="308.513" cy="260.376" r="16.41"/>
</g>
<path style="fill:#8D472E;" d="M253.812,252.171c-13.573,0-24.615,11.042-24.615,24.615c0,13.573,11.042,24.615,24.615,24.615
	c13.573,0,24.615-11.042,24.615-24.615S267.385,252.171,253.812,252.171z"/>
<path style="fill:#AB5034;" d="M244.513,278.974c-4.525,0-8.205-3.68-8.205-8.205c0-4.525,3.68-8.205,8.205-8.205
	s8.205,3.68,8.205,8.205C252.718,275.294,249.038,278.974,244.513,278.974z"/>
<g>
	<path style="fill:#BD7155;" d="M253.812,334.196c-15.36,0-29.784-5.966-40.614-16.796c-3.204-3.204-3.203-8.4,0-11.604
		c3.205-3.203,8.4-3.203,11.604,0c7.73,7.731,18.033,11.989,29.009,11.989c10.976,0,21.279-4.258,29.009-11.989
		c3.204-3.204,8.399-3.204,11.604,0c3.204,3.204,3.204,8.4,0,11.604C283.595,328.23,269.172,334.196,253.812,334.196z"/>
	<path style="fill:#BD7155;" d="M382.399,72.635c-22.275-14.968-49.029-26.101-78.588-32.079c-3.845-0.778-7.794-1.172-11.729-1.172
		c-14.57,0-27.994,5.235-38.271,13.773c-10.277-8.538-23.7-13.773-38.271-13.773c-3.935,0-7.883,0.394-11.729,1.172
		c-29.559,5.978-56.312,17.11-78.588,32.079c-25.767,17.315-40.985,46.535-40.985,77.58v60.93h0.154
		c8.025,0,15.594,1.932,22.288,5.339c6.008,3.057,11.31,7.301,15.581,12.439l0,0c1.691-6.311,8.758-9.434,14.632-6.623
		c26.036,12.454,54.355,20.891,84.157,24.533c8.541,1.044,16.442-4.687,18.103-13.129l14.657-74.524l14.692,74.697
		c1.652,8.4,9.487,14.136,17.99,13.142c30.184-3.525,58.865-11.971,85.216-24.521c5.598-2.666,12.244,0.339,13.926,6.308
		l0.033,0.117c4.271-5.138,9.573-9.381,15.581-12.439c6.651-3.384,14.166-5.309,22.134-5.333v-0.186v-60.75
		C423.385,119.17,408.167,89.95,382.399,72.635z"/>
</g>
<g>
	<path style="opacity:0.5;fill:#CE9276;enable-background:new    ;" d="M381.923,72.316c-19.033-12.706-41.309-22.622-65.791-28.93
		c-0.113-0.028-0.237-0.059-0.374-0.091c-11.216-2.61-21.18,7.703-18.361,18.869l8.653,34.271
		c9.205,36.46,32.679,67.689,65.144,86.666l0,0c11.644,6.806,25.453,8.891,38.587,5.826l0.203-0.047l0,0
		c7.842-1.797,13.402-8.776,13.402-16.822v-21.842C423.385,118.968,407.911,89.666,381.923,72.316z"/>
	<path style="opacity:0.5;fill:#CE9276;enable-background:new    ;" d="M215.541,39.385c-3.935,0-7.883,0.394-11.729,1.172
		c-29.558,5.978-56.312,17.11-78.588,32.079c-25.767,17.314-40.985,46.535-40.985,77.58l0.074,17.593
		c0.046,10.933,7.695,20.359,18.384,22.655l0,0c23.704,5.093,46.969,11.963,69.858,19.958c2.261,0.79,4.534,1.546,6.816,2.269
		c19.602,6.21,40.313-5.694,44.766-25.767c7.032-31.704,17.318-78.069,23.748-107.052c4.558-20.543-10.853-40.33-31.895-40.485
		C215.841,39.386,215.691,39.385,215.541,39.385z"/>
</g>
</svg>