<?xml version="1.0" encoding="iso-8859-1"?>
<!-- Uploaded to: SVG Repo, www.svgrepo.com, Generator: SVG Repo Mixer Tools -->
<svg height="800px" width="800px" version="1.1" id="Layer_1" xmlns="http://www.w3.org/2000/svg" xmlns:xlink="http://www.w3.org/1999/xlink" 
	 viewBox="0 0 512 512" xml:space="preserve">
<path style="fill:#D9B43A;" d="M333.005,393.402c-0.001,0-0.001-0.001-0.002-0.001c-1.924-1.254-3.881-2.462-5.869-3.624
	c-20.95-12.284-45.224-19.335-71.264-19.335s-50.055,7.05-71.004,19.335c-1.988,1.161-3.944,2.369-5.869,3.624
	c-0.001,0-0.001,0.001-0.002,0.001l0,0c-0.001,0.001-0.004,0.002-0.005,0.004c-1.171,0.764-2.327,1.549-3.473,2.346
	c-0.306,0.213-0.61,0.428-0.915,0.644c-0.918,0.649-1.828,1.309-2.731,1.979c-0.242,0.18-0.488,0.359-0.73,0.54
	c-2.312,1.74-4.564,3.551-6.763,5.427c-0.169,0.145-0.338,0.29-0.506,0.435c-1.068,0.919-2.123,1.853-3.163,2.804
	c-0.018,0.017-0.035,0.032-0.053,0.048c-2.252,2.061-4.433,4.197-6.547,6.399c-0.042,0.045-0.086,0.089-0.128,0.134
	c-16.119,16.836-28.118,37.648-34.363,60.824c40.05,23.405,86.645,36.83,136.379,36.83s96.329-13.425,136.379-36.83
	C383.228,441.024,361.737,412.126,333.005,393.402z"/>
<path style="fill:#BB9430;" d="M333.005,393.402c-0.001,0-0.001-0.001-0.002-0.001c-1.924-1.254-3.881-2.462-5.869-3.624
	c-20.95-12.284-45.224-19.335-71.264-19.335l0.129,141.372c49.735,0,96.329-13.425,136.379-36.83
	C383.228,441.024,361.737,412.126,333.005,393.402z"/>
<g style="opacity:0.4;">
	<circle style="fill:#F6EEA4;" cx="185.379" cy="419.016" r="17.655"/>
	<circle style="fill:#F6EEA4;" cx="150.069" cy="454.326" r="17.655"/>
	<circle style="fill:#F6EEA4;" cx="256" cy="419.016" r="17.655"/>
	<circle style="fill:#F6EEA4;" cx="256" cy="489.637" r="17.655"/>
	<circle style="fill:#F6EEA4;" cx="220.689" cy="454.326" r="17.655"/>
	<circle style="fill:#F6EEA4;" cx="326.62" cy="419.016" r="17.655"/>
	<circle style="fill:#F6EEA4;" cx="291.31" cy="454.326" r="17.655"/>
	<circle style="fill:#F6EEA4;" cx="361.931" cy="454.326" r="17.655"/>
	<path style="fill:#F6EEA4;" d="M203.034,489.637c0-9.75-7.905-17.655-17.655-17.655c-9.75,0-17.655,7.905-17.655,17.655
		c0,2.928,0.724,5.683,1.986,8.114c8.08,2.717,16.33,5.064,24.73,7.019C199.582,501.683,203.034,496.07,203.034,489.637z"/>
	<path style="fill:#F6EEA4;" d="M344.276,489.637c0-9.75-7.905-17.655-17.655-17.655c-9.75,0-17.655,7.905-17.655,17.655
		c0,6.434,3.452,12.047,8.595,15.133c8.4-1.955,16.65-4.301,24.73-7.019C343.552,495.319,344.276,492.565,344.276,489.637z"/>
</g>
<path style="opacity:0.3;fill:#80531A;enable-background:new    ;" d="M392.379,474.984c-5.831-21.639-16.689-41.208-31.221-57.415
	c0.004-0.002,0.007-0.006,0.011-0.008c-0.079-0.088-0.166-0.161-0.245-0.248c-6.078-6.745-12.779-12.918-20.043-18.39l-0.504-0.169
	c-2.432-1.816-4.913-3.568-7.462-5.226c-1.896-1.233-3.823-2.423-5.78-3.566c-20.739-12.149-44.817-19.166-70.55-19.322L256,370.443
	v0.186c-0.097,0-0.192-0.005-0.288-0.005c-26.063,0-49.872,7.05-70.847,19.337c-0.932,0.544-1.856,1.099-2.773,1.665
	c-0.887,0.546-1.767,1.104-2.64,1.669c-0.026,0.016-0.053,0.033-0.079,0.049c-0.001,0-0.002,0.001-0.002,0.002
	c-0.094,0.061-0.191,0.12-0.286,0.181c0.002,0.004,0.005,0.006,0.007,0.009c-2.358,1.534-4.641,3.168-6.894,4.841l-0.326-0.006
	c-0.242,0.18-0.488,0.359-0.73,0.54c-2.312,1.74-4.564,3.551-6.763,5.427c-0.169,0.145-0.338,0.29-0.506,0.435
	c-1.068,0.919-2.123,1.853-3.163,2.804l-1.648,1.489c-1.698,1.535-3.281,3.189-4.852,4.854c-0.075,0.08-0.152,0.159-0.228,0.239
	c-1.048,1.095-2.076,2.207-3.088,3.334c10.893,8.649,22.484,16.057,34.592,21.947c22.71,11.049,46.434,16.65,70.512,16.65
	c27.813,0,54.915-7.363,80.07-21.565c6.248-3.528,14.105-1.735,18.354,4.045c9.85,13.399,17.042,28.865,20.774,45.628
	C381.045,481.327,386.779,478.257,392.379,474.984z"/>
<g>
	<circle style="fill:#707F51;" cx="255.705" cy="467.862" r="8.828"/>
	<circle style="fill:#707F51;" cx="256" cy="503.172" r="8.828"/>
</g>
<path style="fill:#BB9430;" d="M152.125,491.147c9.267,3.856,18.792,7.213,28.546,10.035V437.53
	C166.404,451.959,156.255,470.467,152.125,491.147z"/>
<path style="fill:#9E7325;" d="M331.328,437.53v63.652c9.754-2.821,19.279-6.179,28.546-10.035
	C355.744,470.467,345.595,451.959,331.328,437.53z"/>
<path style="fill:#D5D2BD;" d="M438.437,188.322c-8.635,0-16.778,2.08-23.982,5.745c-0.001-0.002-0.001-0.006-0.002-0.008l0,0
	c0-0.001-0.001-0.004-0.001-0.005c-0.561-2.122-1.158-4.238-1.79-6.345c-0.016-0.055-0.034-0.112-0.052-0.167
	c-0.619-2.059-1.27-4.11-1.955-6.152c-0.028-0.084-0.058-0.167-0.086-0.251c-0.679-2.016-1.388-4.024-2.129-6.023
	c-0.036-0.097-0.073-0.193-0.109-0.291c-0.738-1.981-1.507-3.952-2.305-5.913c-0.018-0.042-0.032-0.085-0.049-0.127
	c-0.001,0-0.001,0.001-0.002,0.001c-0.593,0.267-1.189,0.531-1.776,0.812l-37.801-37.801c-5.488-5.488-11.332-10.51-17.468-15.068
	c-19.541-14.516-42.139-24.218-66.435-28.366c-0.006-0.024-0.011-0.053-0.011-0.087h-52.966c0,0.034-0.005,0.064-0.012,0.087
	c-31.925,5.45-60.935,20.466-83.903,43.433l-37.8,37.8l-0.002,0.001c-0.589-0.283-1.183-0.546-1.776-0.812
	c-0.001,0-0.002-0.001-0.004-0.001c-0.028,0.069-0.053,0.14-0.081,0.209c-0.771,1.895-1.511,3.799-2.227,5.713
	c-0.079,0.211-0.157,0.423-0.235,0.633c-0.7,1.893-1.372,3.795-2.016,5.704c-0.075,0.221-0.147,0.444-0.221,0.666
	c-0.64,1.921-1.256,3.849-1.838,5.784c-0.053,0.175-0.102,0.352-0.154,0.527c-0.597,2.004-1.169,4.016-1.702,6.033
	c0,0.001,0,0.001,0,0.002l99.528,221.57c18.299,8.903,38.162,13.983,58.927,13.983c75.276,0,138.759-66.581,158.458-141.1
	c7.201,3.664,15.345,5.744,23.979,5.744c29.252,0,52.966-23.713,52.966-52.966S467.689,188.322,438.437,188.322z"/>
<path style="fill:#E7E4CD;" d="M385.471,229.517c0-0.022,0-0.045,0-0.067c-0.001-3.792-1.882-7.359-5.003-9.511
	c-1.76-1.214-3.43-2.598-4.985-4.152l-46.538-46.538c-15.2-15.201-34.391-25.123-55.497-28.698l-0.563-0.097
	c-11.159-1.91-22.562-1.913-33.723-0.008l-0.612,0.105c-21.106,3.575-40.296,13.498-55.496,28.698l-46.537,46.537
	c-0.038,0.038-0.074,0.074-0.112,0.112c-5.209,5.164-13.892,3.876-17.741-2.367c-5.102-8.276-12.417-15.042-21.12-19.472
	c-0.001,0.002-0.001,0.006-0.002,0.008c-8.231-4.188-17.693-6.305-27.712-5.614c-26.825,1.85-48.237,24.023-49.198,50.895
	c-1.078,30.136,23.034,54.906,52.93,54.906c8.639,0,16.787-2.081,23.991-5.75c14.265,53.96,51.48,103.756,99.519,127.124
	c7.714,1.441,15.597,2.212,23.617,2.212C311.696,417.839,385.471,320.524,385.471,229.517z"/>
<circle style="fill:#C1BDAB;" cx="438.437" cy="241.287" r="17.655"/>
<circle style="fill:#D5D2BD;" cx="73.563" cy="241.287" r="17.655"/>
<g>
	<path style="fill:#DFB296;" d="M171.255,268.947h-11.77c-4.876,0-8.828-3.952-8.828-8.828s3.951-8.828,8.828-8.828h11.77
		c4.876,0,8.828,3.952,8.828,8.828S176.131,268.947,171.255,268.947z"/>
	<path style="fill:#DFB296;" d="M352.515,268.947h-11.77c-4.876,0-8.828-3.952-8.828-8.828s3.951-8.828,8.828-8.828h11.77
		c4.876,0,8.828,3.952,8.828,8.828S357.391,268.947,352.515,268.947z"/>
</g>
<path style="fill:#C1BDAB;" d="M256,320.736c-16.488,0-32.001-6.432-43.68-18.114c-5.049-5.049-6.559-12.643-3.826-19.241
	c2.733-6.597,9.17-10.898,16.311-10.898h62.391c7.141,0,13.578,4.301,16.311,10.898s1.223,14.191-3.826,19.241
	C288,314.303,272.487,320.736,256,320.736z"/>
<path style="fill:#8D472E;" d="M256,232.46c-14.603,0-26.483,11.88-26.483,26.483s11.88,26.483,26.483,26.483
	c14.603,0,26.483-11.88,26.483-26.483S270.603,232.46,256,232.46z"/>
<path style="fill:#AB5034;" d="M245.995,261.297c-4.868,0-8.828-3.959-8.828-8.828c0-4.868,3.959-8.828,8.828-8.828
	s8.828,3.959,8.828,8.828C254.823,257.337,250.863,261.297,245.995,261.297z"/>
<g>
	<circle style="fill:#47423F;" cx="197.149" cy="241.287" r="17.655"/>
	<circle style="fill:#47423F;" cx="314.85" cy="241.287" r="17.655"/>
</g>
<g>
	<path style="fill:#707F51;" d="M180.785,199.762c-3.722,0-7.182-2.372-8.393-6.103c-1.507-4.636,1.031-9.616,5.667-11.123
		c12.505-4.063,25.708-4.063,38.183-0.001c4.636,1.509,7.17,6.491,5.661,11.126c-1.508,4.636-6.489,7.173-11.126,5.661
		c-8.904-2.899-18.331-2.897-27.263,0.005C182.608,199.622,181.69,199.762,180.785,199.762z"/>
	<path style="fill:#707F51;" d="M298.486,199.762c-3.722,0-7.182-2.372-8.393-6.103c-1.507-4.636,1.031-9.616,5.667-11.123
		c12.505-4.063,25.708-4.063,38.183-0.001c4.636,1.509,7.17,6.491,5.661,11.126c-1.508,4.636-6.489,7.173-11.126,5.661
		c-8.904-2.899-18.331-2.897-27.263,0.005C300.31,199.622,299.391,199.762,298.486,199.762z"/>
</g>
<path style="fill:#7C9554;" d="M438.437,48.807c-0.079-0.08-0.153-0.164-0.233-0.242C405.995,16.189,330.998,0,256,0
	S106.005,16.189,73.796,48.565c-0.079,0.08-0.154,0.162-0.233,0.242C37.914,84.93,36.499,151.98,53.567,192.24
	c1.389-0.567,2.801-1.088,4.247-1.536c1.658-0.516,3.352-0.952,5.076-1.305c3.446-0.706,7.017-1.077,10.673-1.077
	c1.01,0,2.01,0.034,3.006,0.091c0.293,0.016,0.583,0.045,0.875,0.067c0.713,0.052,1.424,0.113,2.129,0.192
	c0.31,0.035,0.618,0.077,0.926,0.118c0.706,0.092,1.408,0.198,2.106,0.318c0.267,0.046,0.533,0.093,0.798,0.142
	c0.277,0.052,0.558,0.093,0.833,0.148c0.514,0.105,1.02,0.233,1.529,0.353c0.153,0.036,0.306,0.068,0.458,0.106
	c1.04,0.255,2.073,0.531,3.088,0.846c2.857,0.889,5.601,2.026,8.228,3.362l9.331,4.733c3.632,1.843,8.038,1.141,10.918-1.74
	l8.739-8.736l37.8-37.8c19.726-19.726,44.237-31.753,69.801-36.082c12.683-2.148,21.87-13.299,21.87-26.164
	c0,12.864,9.187,24.016,21.87,26.164c25.564,4.329,50.076,16.357,69.802,36.082l37.8,37.8l8.738,8.738
	c2.88,2.88,7.286,3.582,10.918,1.74l9.331-4.733c2.627-1.336,5.372-2.474,8.228-3.362c1.016-0.315,2.048-0.591,3.088-0.846
	c0.152-0.038,0.306-0.069,0.458-0.106c0.508-0.12,1.015-0.247,1.529-0.353c0.275-0.057,0.557-0.097,0.833-0.148
	c0.265-0.049,0.531-0.097,0.798-0.142c0.697-0.12,1.398-0.226,2.106-0.318c0.308-0.041,0.617-0.082,0.926-0.118
	c0.705-0.08,1.416-0.14,2.129-0.192c0.292-0.021,0.581-0.049,0.875-0.067c0.996-0.055,1.997-0.091,3.006-0.091
	c3.657,0,7.227,0.371,10.674,1.076c1.724,0.353,3.418,0.79,5.076,1.305c1.445,0.45,2.858,0.97,4.247,1.536
	C475.501,151.98,474.086,84.93,438.437,48.807z"/>
<path style="fill:#707F51;" d="M438.437,48.807c-0.079-0.08-0.153-0.164-0.233-0.242c-17.328-17.417-47.05-30.142-82.483-38.189
	l10.236,14.331c6.056,8.478,10.1,17.888,12.157,27.604c6.301,29.742-24.449,53.442-51.974,40.535
	c-0.129-0.061-0.259-0.121-0.388-0.181c-16.754-7.802-32.965-16.784-47.833-27.762C268.005,57.582,256,48.257,256,48.257
	s-12.003,9.324-21.919,16.644c-14.869,10.977-31.079,19.96-47.834,27.762c-17.283,8.048-33.113,19.116-46.886,32.889l-28.911,28.911
	c-2.771,2.771-6.847,3.708-10.587,2.541c-0.02-0.006-0.04-0.013-0.06-0.019c-1.61-0.501-3.302-0.967-5.166-1.424
	c-0.274-0.068-0.551-0.132-0.845-0.199l-0.214-0.051c-0.737-0.177-1.475-0.347-2.275-0.512c-0.518-0.106-1.039-0.201-1.601-0.297
	c-0.365-0.067-0.731-0.132-1.099-0.195c-1.164-0.2-2.335-0.378-3.536-0.534l-0.147-0.02c-0.457-0.06-0.915-0.119-1.374-0.171
	c-1.176-0.133-2.359-0.238-3.519-0.323c-0.484-0.04-0.966-0.077-1.484-0.106c-1.747-0.095-3.376-0.144-4.979-0.144
	c-5.964,0-11.935,0.603-17.756,1.794c-2.852,0.584-5.706,1.318-8.47,2.177c-0.95,0.295-1.901,0.624-2.857,0.959
	c1.711,12.506,4.821,24.238,9.087,34.298c1.389-0.567,2.801-1.088,4.247-1.536c1.658-0.516,3.352-0.952,5.076-1.305
	c3.446-0.706,7.017-1.077,10.673-1.077c1.01,0,2.01,0.034,3.006,0.091c0.293,0.016,0.583,0.045,0.875,0.067
	c0.713,0.052,1.424,0.113,2.129,0.192c0.31,0.035,0.618,0.077,0.926,0.118c0.706,0.092,1.408,0.198,2.106,0.318
	c0.267,0.046,0.533,0.093,0.798,0.142c0.277,0.052,0.558,0.093,0.833,0.148c0.514,0.105,1.02,0.233,1.529,0.353
	c0.153,0.036,0.306,0.068,0.458,0.106c1.04,0.255,2.073,0.531,3.088,0.846c2.857,0.889,5.601,2.026,8.228,3.362l9.331,4.734
	c3.632,1.842,8.038,1.141,10.918-1.74l8.739-8.737l37.8-37.8c19.726-19.726,44.237-31.753,69.801-36.082
	c12.683-2.148,21.87-13.299,21.87-26.164c0,12.864,9.187,24.016,21.87,26.164c25.564,4.329,50.076,16.357,69.802,36.082l37.8,37.8
	l8.738,8.738c2.88,2.88,7.286,3.582,10.918,1.74l9.331-4.734c2.627-1.336,5.372-2.474,8.228-3.362
	c1.016-0.315,2.048-0.591,3.088-0.846c0.152-0.038,0.306-0.069,0.458-0.106c0.508-0.12,1.015-0.247,1.529-0.353
	c0.275-0.056,0.557-0.097,0.833-0.148c0.265-0.049,0.531-0.097,0.798-0.142c0.697-0.12,1.398-0.226,2.106-0.318
	c0.308-0.041,0.617-0.082,0.926-0.118c0.705-0.08,1.416-0.14,2.129-0.192c0.292-0.021,0.581-0.049,0.875-0.067
	c0.996-0.055,1.997-0.091,3.006-0.091c3.657,0,7.227,0.371,10.674,1.076c1.724,0.353,3.418,0.79,5.076,1.305
	c1.445,0.45,2.858,0.97,4.247,1.536c4.264-10.06,7.375-21.794,9.087-34.298c-0.011-0.004-0.02-0.007-0.031-0.011
	C472.631,120.392,465.181,75.905,438.437,48.807z"/>
</svg>