<svg width="118" height="108" viewBox="0 0 118 108" fill="none" xmlns="http://www.w3.org/2000/svg">
<rect x="5.125" width="107" height="107" rx="21" fill="#F4F2F2"/>
<g filter="url(#filter0_d_461_45)">
<path d="M19.25 82.3041H47.375C53.5884 82.3041 58.625 86.6597 58.625 92.033V40.7842C58.625 29.1308 58.625 27.615 53.6823 23.3407C48.7396 19.0664 40.7849 19.0664 24.875 19.0664H19.25C13.9467 19.0664 11.2951 19.0664 9.64751 20.4912C8 21.9159 8 24.209 8 28.7953V72.5752C8 77.1614 8 79.4545 9.64751 80.8793C11.2951 82.3041 13.9467 82.3041 19.25 82.3041Z" fill="#6643FF"/>
<path d="M98 82.3041H69.875C63.6616 82.3041 58.625 86.6597 58.625 92.033V40.7842C58.625 30.1902 58.625 27.615 63.5677 23.3407C68.5104 19.0664 76.4653 19.0664 92.375 19.0664H98C103.303 19.0664 105.955 19.0664 107.602 20.4912C109.25 21.9159 109.25 24.209 109.25 28.7953V72.5752C109.25 77.1614 109.25 79.4545 107.602 80.8793C105.955 82.3041 103.303 82.3041 98 82.3041Z" fill="#303FFF"/>
<g filter="url(#filter1_d_461_45)">
<path d="M18.125 68.9144C17.5727 68.9144 17.125 68.4667 17.125 67.9144V40.2031C17.125 39.6508 17.5727 39.2031 18.125 39.2031H37.9923C38.5446 39.2031 38.9923 39.6508 38.9923 40.2031V45.1147C38.9923 45.667 38.5446 46.1147 37.9923 46.1147H26.7381C26.1858 46.1147 25.7381 46.5624 25.7381 47.1147V49.3712C25.7381 49.9235 26.1858 50.3712 26.7381 50.3712H36.9888C37.5411 50.3712 37.9888 50.8189 37.9888 51.3712V56.2828C37.9888 56.8351 37.5411 57.2828 36.9888 57.2828H26.7381C26.1858 57.2828 25.7381 57.7305 25.7381 58.2828V61.0029C25.7381 61.5552 26.1858 62.0029 26.7381 62.0029H37.9923C38.5446 62.0029 38.9923 62.4506 38.9923 63.0029V67.9144C38.9923 68.4667 38.5446 68.9144 37.9923 68.9144H18.125Z" fill="white"/>
</g>
<path opacity="0.39" d="M43.1255 54.3403C43.1255 51.2779 43.7387 48.5947 44.9652 46.2909C46.2195 43.987 47.9895 42.2029 50.2752 40.9386C52.5609 39.6462 55.2647 39 58.3866 39C61.5364 39 64.2541 39.6462 66.5398 40.9386C68.8254 42.2029 70.5955 43.987 71.8498 46.2909C73.1041 48.5947 73.7313 51.2779 73.7313 54.3403C73.7313 57.4028 73.1041 60.0859 71.8498 62.3898C70.5955 64.6936 68.8254 66.4918 66.5398 67.7842C64.2541 69.0766 61.5364 69.7228 58.3866 69.7228C55.2647 69.7228 52.5609 69.0766 50.2752 67.7842C47.9895 66.4918 46.2195 64.6936 44.9652 62.3898C43.7387 60.0578 43.1255 57.3747 43.1255 54.3403Z" fill="white"/>
<g filter="url(#filter2_d_461_45)">
<path d="M58.3867 39C61.5364 39 64.2544 39.6461 66.54 40.9385C68.8256 42.2028 70.5953 43.9872 71.8496 46.291C73.1039 48.5949 73.7314 51.2784 73.7314 54.3408C73.7314 57.4031 73.1038 60.0859 71.8496 62.3896C70.5953 64.6934 68.8256 66.4918 66.54 67.7842C64.2544 69.0766 61.5364 69.7226 58.3867 69.7227C55.2648 69.7227 52.5611 69.0766 50.2754 67.7842C47.9897 66.4918 46.2192 64.6935 44.9648 62.3896C43.7386 60.0579 43.125 57.3749 43.125 54.3408C43.125 51.2784 43.7384 48.5948 44.9648 46.291C46.2192 43.9872 47.9897 42.2028 50.2754 40.9385C52.561 39.6462 55.2649 39 58.3867 39ZM58.3867 46.543C56.3798 46.543 54.9018 47.2317 53.9541 48.6084C53.0343 49.957 52.5752 51.8676 52.5752 54.3398C52.5752 56.812 53.0344 58.7366 53.9541 60.1133C54.9018 61.49 56.3798 62.1787 58.3867 62.1787C60.3935 62.1787 61.8707 61.4899 62.8184 60.1133C63.7939 58.7085 64.2822 56.7841 64.2822 54.3398C64.2822 51.8956 63.7939 49.9851 62.8184 48.6084C61.8707 47.2318 60.3935 46.543 58.3867 46.543Z" fill="white"/>
</g>
<path opacity="0.4" d="M93.0381 39.1914C96.3869 39.1914 98.906 40.0627 100.594 41.8047C102.281 43.5185 103.125 45.8362 103.125 48.7578C103.125 51.6516 102.281 53.97 100.594 55.7119C98.906 57.4539 96.3869 58.3242 93.0381 58.3242H87.0908V68.9023H78.4111V39.1914H93.0381Z" fill="white"/>
<g filter="url(#filter3_d_461_45)">
<path d="M93.0381 39.1914C96.3869 39.1914 98.906 40.0627 100.594 41.8047C102.281 43.5184 103.125 45.8362 103.125 48.7578C103.125 51.6516 102.281 53.97 100.594 55.7119C98.906 57.4539 96.3869 58.3252 93.0381 58.3252H88.0908C87.5385 58.3252 87.0908 58.7729 87.0908 59.3252V67.9023C87.0908 68.4546 86.6431 68.9023 86.0908 68.9023H79.4111C78.8588 68.9023 78.4111 68.4546 78.4111 67.9023V40.1914C78.4111 39.6391 78.8588 39.1914 79.4111 39.1914H93.0381ZM87.0918 50.4141C87.0918 50.9663 87.5395 51.4141 88.0918 51.4141H91.873C92.8911 51.4141 93.6418 51.1888 94.124 50.7393C94.606 50.2617 94.8467 49.6015 94.8467 48.7588C94.8467 47.916 94.6061 47.2698 94.124 46.8203C93.6418 46.3427 92.8911 46.1035 91.873 46.1035H88.0918C87.5395 46.1035 87.0918 46.5512 87.0918 47.1035V50.4141Z" fill="white"/>
</g>
</g>
<defs>
<filter id="filter0_d_461_45" x="0" y="18.0664" width="117.25" height="88.9668" filterUnits="userSpaceOnUse" color-interpolation-filters="sRGB">
<feFlood flood-opacity="0" result="BackgroundImageFix"/>
<feColorMatrix in="SourceAlpha" type="matrix" values="0 0 0 0 0 0 0 0 0 0 0 0 0 0 0 0 0 0 127 0" result="hardAlpha"/>
<feOffset dy="7"/>
<feGaussianBlur stdDeviation="4"/>
<feComposite in2="hardAlpha" operator="out"/>
<feColorMatrix type="matrix" values="0 0 0 0 0 0 0 0 0 0 0 0 0 0 0 0 0 0 0.25 0"/>
<feBlend mode="normal" in2="BackgroundImageFix" result="effect1_dropShadow_461_45"/>
<feBlend mode="normal" in="SourceGraphic" in2="effect1_dropShadow_461_45" result="shape"/>
</filter>
<filter id="filter1_d_461_45" x="15.125" y="39.2031" width="25.8672" height="33.7109" filterUnits="userSpaceOnUse" color-interpolation-filters="sRGB">
<feFlood flood-opacity="0" result="BackgroundImageFix"/>
<feColorMatrix in="SourceAlpha" type="matrix" values="0 0 0 0 0 0 0 0 0 0 0 0 0 0 0 0 0 0 127 0" result="hardAlpha"/>
<feOffset dy="2"/>
<feGaussianBlur stdDeviation="1"/>
<feComposite in2="hardAlpha" operator="out"/>
<feColorMatrix type="matrix" values="0 0 0 0 0.0941176 0 0 0 0 0.0941176 0 0 0 0 0.0941176 0 0 0 0.25 0"/>
<feBlend mode="normal" in2="BackgroundImageFix" result="effect1_dropShadow_461_45"/>
<feBlend mode="normal" in="SourceGraphic" in2="effect1_dropShadow_461_45" result="shape"/>
</filter>
<filter id="filter2_d_461_45" x="41.125" y="39" width="34.6064" height="34.7227" filterUnits="userSpaceOnUse" color-interpolation-filters="sRGB">
<feFlood flood-opacity="0" result="BackgroundImageFix"/>
<feColorMatrix in="SourceAlpha" type="matrix" values="0 0 0 0 0 0 0 0 0 0 0 0 0 0 0 0 0 0 127 0" result="hardAlpha"/>
<feOffset dy="2"/>
<feGaussianBlur stdDeviation="1"/>
<feComposite in2="hardAlpha" operator="out"/>
<feColorMatrix type="matrix" values="0 0 0 0 0.0941176 0 0 0 0 0.0941176 0 0 0 0 0.0941176 0 0 0 0.25 0"/>
<feBlend mode="normal" in2="BackgroundImageFix" result="effect1_dropShadow_461_45"/>
<feBlend mode="normal" in="SourceGraphic" in2="effect1_dropShadow_461_45" result="shape"/>
</filter>
<filter id="filter3_d_461_45" x="76.4111" y="39.1914" width="28.7139" height="33.7109" filterUnits="userSpaceOnUse" color-interpolation-filters="sRGB">
<feFlood flood-opacity="0" result="BackgroundImageFix"/>
<feColorMatrix in="SourceAlpha" type="matrix" values="0 0 0 0 0 0 0 0 0 0 0 0 0 0 0 0 0 0 127 0" result="hardAlpha"/>
<feOffset dy="2"/>
<feGaussianBlur stdDeviation="1"/>
<feComposite in2="hardAlpha" operator="out"/>
<feColorMatrix type="matrix" values="0 0 0 0 0.0941176 0 0 0 0 0.0941176 0 0 0 0 0.0941176 0 0 0 0.25 0"/>
<feBlend mode="normal" in2="BackgroundImageFix" result="effect1_dropShadow_461_45"/>
<feBlend mode="normal" in="SourceGraphic" in2="effect1_dropShadow_461_45" result="shape"/>
</filter>
</defs>
</svg>
