<svg width="135" height="135" viewBox="0 0 135 135" fill="none" xmlns="http://www.w3.org/2000/svg">
<g clip-path="url(#clip0_461_44)">
<rect x="9" y="9" width="116.999" height="116.999" rx="58.4997" fill="#EDEDF7"/>
<g filter="url(#filter0_d_461_44)">
<path d="M20.9663 101.542H54.2047C61.5478 101.542 67.5001 106.689 67.5001 113.039V52.473C67.5001 38.7008 67.5001 36.9094 61.6588 31.858C55.8175 26.8066 46.4165 26.8066 27.614 26.8066H20.9663C14.6988 26.8066 11.5651 26.8066 9.61794 28.4904C7.6709 30.1743 7.6709 32.8843 7.6709 38.3043V90.044C7.6709 95.464 7.6709 98.174 9.61794 99.8579C11.5651 101.542 14.6988 101.542 20.9663 101.542Z" fill="#6643FF"/>
<path d="M114.034 101.542H80.7954C73.4523 101.542 67.5 106.689 67.5 113.039V52.473C67.5 39.9528 67.5 36.9094 73.3413 31.858C79.1827 26.8066 88.5838 26.8066 107.386 26.8066H114.034C120.301 26.8066 123.435 26.8066 125.382 28.4904C127.329 30.1743 127.329 32.8843 127.329 38.3043V90.044C127.329 95.464 127.329 98.174 125.382 99.8579C123.435 101.542 120.301 101.542 114.034 101.542Z" fill="#303FFF"/>
<g filter="url(#filter1_d_461_44)">
<path d="M19.4551 85.7187C18.9028 85.7187 18.4551 85.271 18.4551 84.7187V51.6055C18.4551 51.0532 18.9028 50.6055 19.4551 50.6055H43.2981C43.8504 50.6055 44.2981 51.0532 44.2981 51.6055V57.7736C44.2981 58.3259 43.8504 58.7736 43.2981 58.7736H29.6342C29.0819 58.7736 28.6342 59.2214 28.6342 59.7736V62.804C28.6342 63.3563 29.0819 63.804 29.6342 63.804H42.1122C42.6645 63.804 43.1122 64.2518 43.1122 64.804V70.9722C43.1122 71.5245 42.6645 71.9722 42.1122 71.9722H29.6342C29.0819 71.9722 28.6342 72.4199 28.6342 72.9722V76.5505C28.6342 77.1028 29.0819 77.5505 29.6342 77.5505H43.2981C43.8504 77.5505 44.2981 77.9982 44.2981 78.5505V84.7187C44.2981 85.271 43.8504 85.7187 43.2981 85.7187H19.4551Z" fill="white"/>
</g>
<path opacity="0.39" d="M49.1821 68.4926C49.1821 64.8734 49.9069 61.7024 51.3563 58.9797C52.8387 56.257 54.9305 54.1485 57.6318 52.6544C60.333 51.127 63.5284 50.3633 67.2179 50.3633C70.9403 50.3633 74.1522 51.127 76.8534 52.6544C79.5546 54.1485 81.6465 56.257 83.1289 58.9797C84.6112 61.7024 85.3524 64.8734 85.3524 68.4926C85.3524 72.1119 84.6112 75.2829 83.1289 78.0056C81.6465 80.7283 79.5546 82.8534 76.8534 84.3807C74.1522 85.9081 70.9403 86.6718 67.2179 86.6718C63.5284 86.6718 60.333 85.9081 57.6318 84.3807C54.9305 82.8534 52.8387 80.7283 51.3563 78.0056C49.9069 75.2497 49.1821 72.0787 49.1821 68.4926Z" fill="white"/>
<g filter="url(#filter2_d_461_44)">
<path d="M67.2183 50.3652C70.9406 50.3653 74.1528 51.1289 76.854 52.6562C79.555 54.1504 81.6471 56.2589 83.1294 58.9814C84.6117 61.7041 85.353 64.8751 85.353 68.4941C85.353 72.1132 84.6117 75.2842 83.1294 78.0068C81.6471 80.7294 79.555 82.8545 76.854 84.3818C74.1528 85.9092 70.9406 86.6738 67.2183 86.6738C63.5288 86.6738 60.3336 85.9092 57.6323 84.3818C54.9311 82.8545 52.8393 80.7296 51.3569 78.0068C49.9075 75.2509 49.1821 72.0801 49.1821 68.4941C49.1821 64.8749 49.9075 61.7042 51.3569 58.9814C52.8393 56.2587 54.9311 54.1504 57.6323 52.6562C60.3335 51.1289 63.5288 50.3652 67.2183 50.3652ZM67.2183 59.2793C64.8464 59.2793 63.1 60.0927 61.98 61.7197C60.8931 63.3135 60.3501 65.5715 60.3501 68.4932C60.3501 71.4149 60.893 73.6895 61.98 75.3164C63.1 76.9434 64.8464 77.7568 67.2183 77.7568C69.5899 77.7568 71.3356 76.9432 72.4556 75.3164C73.6085 73.6562 74.185 71.3818 74.1851 68.4932C74.1851 65.6045 73.6085 63.3467 72.4556 61.7197C71.3356 60.0928 69.59 59.2793 67.2183 59.2793Z" fill="white"/>
</g>
<path opacity="0.4" d="M108.171 50.5898C112.128 50.5899 115.104 51.6201 117.099 53.6787C119.093 55.7041 120.091 58.4433 120.091 61.8965C120.091 65.3164 119.093 68.0557 117.099 70.1143C115.104 72.1727 112.128 73.2021 108.171 73.2021H101.142V85.7031H90.8838V50.5898H108.171Z" fill="white"/>
<g filter="url(#filter3_d_461_44)">
<path d="M108.171 50.5898C112.128 50.5899 115.104 51.6201 117.099 53.6787C119.093 55.7041 120.091 58.4433 120.091 61.8965C120.091 65.3164 119.093 68.0557 117.099 70.1143C115.104 72.1727 112.128 73.2021 108.171 73.2021H102.142C101.589 73.2021 101.142 73.6499 101.142 74.2021V84.7031C101.142 85.2554 100.694 85.7031 100.142 85.7031H91.8838C91.3315 85.7031 90.8838 85.2554 90.8838 84.7031V51.5898C90.8838 51.0376 91.3315 50.5898 91.8838 50.5898H108.171ZM101.142 64.0352C101.142 64.5874 101.589 65.0352 102.142 65.0352H106.794C107.997 65.0351 108.883 64.7695 109.453 64.2383C110.023 63.6738 110.308 62.8935 110.308 61.8975C110.308 60.9014 110.023 60.1377 109.453 59.6064C108.883 59.042 107.997 58.7598 106.794 58.7598H102.142C101.589 58.7598 101.142 59.2075 101.142 59.7598V64.0352Z" fill="white"/>
</g>
</g>
</g>
<defs>
<filter id="filter0_d_461_44" x="-0.329102" y="25.8066" width="135.658" height="102.232" filterUnits="userSpaceOnUse" color-interpolation-filters="sRGB">
<feFlood flood-opacity="0" result="BackgroundImageFix"/>
<feColorMatrix in="SourceAlpha" type="matrix" values="0 0 0 0 0 0 0 0 0 0 0 0 0 0 0 0 0 0 127 0" result="hardAlpha"/>
<feOffset dy="7"/>
<feGaussianBlur stdDeviation="4"/>
<feComposite in2="hardAlpha" operator="out"/>
<feColorMatrix type="matrix" values="0 0 0 0 0 0 0 0 0 0 0 0 0 0 0 0 0 0 0.25 0"/>
<feBlend mode="normal" in2="BackgroundImageFix" result="effect1_dropShadow_461_44"/>
<feBlend mode="normal" in="SourceGraphic" in2="effect1_dropShadow_461_44" result="shape"/>
</filter>
<filter id="filter1_d_461_44" x="16.4551" y="50.6055" width="29.8428" height="39.1133" filterUnits="userSpaceOnUse" color-interpolation-filters="sRGB">
<feFlood flood-opacity="0" result="BackgroundImageFix"/>
<feColorMatrix in="SourceAlpha" type="matrix" values="0 0 0 0 0 0 0 0 0 0 0 0 0 0 0 0 0 0 127 0" result="hardAlpha"/>
<feOffset dy="2"/>
<feGaussianBlur stdDeviation="1"/>
<feComposite in2="hardAlpha" operator="out"/>
<feColorMatrix type="matrix" values="0 0 0 0 0.0941176 0 0 0 0 0.0941176 0 0 0 0 0.0941176 0 0 0 0.25 0"/>
<feBlend mode="normal" in2="BackgroundImageFix" result="effect1_dropShadow_461_44"/>
<feBlend mode="normal" in="SourceGraphic" in2="effect1_dropShadow_461_44" result="shape"/>
</filter>
<filter id="filter2_d_461_44" x="47.1821" y="50.3652" width="40.1709" height="40.3086" filterUnits="userSpaceOnUse" color-interpolation-filters="sRGB">
<feFlood flood-opacity="0" result="BackgroundImageFix"/>
<feColorMatrix in="SourceAlpha" type="matrix" values="0 0 0 0 0 0 0 0 0 0 0 0 0 0 0 0 0 0 127 0" result="hardAlpha"/>
<feOffset dy="2"/>
<feGaussianBlur stdDeviation="1"/>
<feComposite in2="hardAlpha" operator="out"/>
<feColorMatrix type="matrix" values="0 0 0 0 0.0941176 0 0 0 0 0.0941176 0 0 0 0 0.0941176 0 0 0 0.25 0"/>
<feBlend mode="normal" in2="BackgroundImageFix" result="effect1_dropShadow_461_44"/>
<feBlend mode="normal" in="SourceGraphic" in2="effect1_dropShadow_461_44" result="shape"/>
</filter>
<filter id="filter3_d_461_44" x="88.8838" y="50.5898" width="33.207" height="39.1133" filterUnits="userSpaceOnUse" color-interpolation-filters="sRGB">
<feFlood flood-opacity="0" result="BackgroundImageFix"/>
<feColorMatrix in="SourceAlpha" type="matrix" values="0 0 0 0 0 0 0 0 0 0 0 0 0 0 0 0 0 0 127 0" result="hardAlpha"/>
<feOffset dy="2"/>
<feGaussianBlur stdDeviation="1"/>
<feComposite in2="hardAlpha" operator="out"/>
<feColorMatrix type="matrix" values="0 0 0 0 0.0941176 0 0 0 0 0.0941176 0 0 0 0 0.0941176 0 0 0 0.25 0"/>
<feBlend mode="normal" in2="BackgroundImageFix" result="effect1_dropShadow_461_44"/>
<feBlend mode="normal" in="SourceGraphic" in2="effect1_dropShadow_461_44" result="shape"/>
</filter>
<clipPath id="clip0_461_44">
<rect width="135" height="135" fill="white"/>
</clipPath>
</defs>
</svg>
